# xmcd
#
# Track frame offsets:
#	150
#	16963
#	35120
#	55238
#	71830
#	89723
#	108635
#	126490
#	144625
#	158478
#	176178
#	190443
#
# Disc length: 2731 seconds
#
# Revision: 1
# Processed by: cddbd v1.5.1PL0 Copyright (c) Steve Scherf et al.
# Submitted via: audiograbber 1.83.01
#
DISCID=ba0aa90c
DTITLE=Rebecca Lynn Howard - Forgive
DYEAR=2001
DGENRE=Country
TTITLE0=Beautiful To You
TTITLE1=Dancin' In God's Country
TTITLE2=It Didn't Look Like Alcohol
TTITLE3=Life Had Other Plans
TTITLE4=Forgive
TTITLE5=It's My Job To Fall
TTITLE6=Jesus And Bartenders
TTITLE7=This Love
TTITLE8=When Did You Ever Listen To Me
TTITLE9=Memorized
TTITLE10=Pink Flamingo Kind Of Love
TTITLE11=Softly And Tenderly
EXTD=2001 EMI April Music, Inc./Tennessee Colonel Music
EXTT0=
EXTT1=
EXTT2=
EXTT3=
EXTT4=
EXTT5=
EXTT6=
EXTT7=
EXTT8=
EXTT9=
EXTT10=
EXTT11=
PLAYORDER=
